<?xml version="1.0" encoding="utf-8"?>
<!-- Generator: Adobe Illustrator 18.0.0, SVG Export Plug-In . SVG Version: 6.00 Build 0)  -->
<!DOCTYPE svg PUBLIC "-//W3C//DTD SVG 1.1//EN" "http://www.w3.org/Graphics/SVG/1.1/DTD/svg11.dtd">
<svg version="1.1" id="Layer_1" xmlns="http://www.w3.org/2000/svg" xmlns:xlink="http://www.w3.org/1999/xlink" x="0px" y="0px"
	 viewBox="0 0 85.2 31.6" enable-background="new 0 0 85.2 31.6" xml:space="preserve">
<g>
	<path d="M26.6,29.6V14.5h3.9v1.8c0.8-1.5,2.8-2.3,4.4-2.3c2.1,0,3.7,0.9,4.5,2.5c1.2-1.8,2.8-2.5,4.8-2.5c2.8,0,5.5,1.7,5.5,5.8
		v9.8h-4v-9c0-1.6-0.8-2.9-2.7-2.9c-1.8,0-2.8,1.4-2.8,3v8.9h-4.1v-9c0-1.6-0.8-2.9-2.7-2.9c-1.8,0-2.8,1.3-2.8,3v8.9L26.6,29.6
		L26.6,29.6z"/>
	<rect x="52.5" y="14.5" width="4.1" height="15.2"/>
	<path d="M63.4,29.6h-4.1V14.5h4v1.9c0.9-1.6,2.7-2.3,4.4-2.3c3.8,0,5.5,2.7,5.5,6v9.5H69v-8.9c0-1.7-0.8-3-2.8-3
		c-1.8,0-2.8,1.4-2.8,3.1L63.4,29.6L63.4,29.6z"/>
	<path d="M80.8,14.5h3v3.6h-3v6.3c0,1.3,0.6,1.8,1.8,1.8c0.5,0,1-0.1,1.3-0.1v3.4c-0.4,0.2-1.1,0.4-2.3,0.4c-3,0-4.8-1.8-4.8-4.7
		v-7.1H74v-3.6h0.8c1.6,0,2.4-2,2.4-3.4V9.6h3.7V14.5z"/>
	<path fill="#2ED2F1" d="M12,20.8l9.5-6.3c-0.5-1.2-1.1-2.5-1.8-3.7L12,15.9V20.8z"/>
	<path fill="#029F7B" d="M12,25.7l10.5-7c-0.1-1.4-0.5-2.8-1-4.2L12,20.8V25.7z"/>
	<path fill="#00C772" d="M19.6,10.8C16.8,6.1,12.8,2,12,1.2v14.7L19.6,10.8z"/>
	<path fill="#00C772" d="M12,25.7v4.9c6.3-4.3,10.5-6,10.5-11.3c0-0.2,0-0.4,0-0.6L12,25.7z"/>
	<path fill="#A4EE55" d="M12,20.8v-4.9V1.2l0,0C10.6,2.5,1.5,12,1.5,19.3c0,5.2,4.2,7,10.5,11.3l0,0v-4.9V20.8z"/>
</g>
</svg>
